<svg xmlns="http://www.w3.org/2000/svg" width="300" height="300" viewBox="0 0 300 300">
  <g fill="none" stroke="#b3a58e" stroke-width="2" stroke-linecap="round" stroke-linejoin="round"
     style="stroke-opacity:.34">
    <!-- chat bubble -->
    <g transform="translate(28,34)"><path d="M0 4a4 4 0 0 1 4-4h22a4 4 0 0 1 4 4v13a4 4 0 0 1-4 4H10l-6 6v-6H4a4 4 0 0 1-4-4z"/></g>
    <!-- heart -->
    <g transform="translate(120,26)"><path d="M11 20S1 13 1 6.5A5.5 5.5 0 0 1 11 3a5.5 5.5 0 0 1 10 3.5C21 13 11 20 11 20z"/></g>
    <!-- camera -->
    <g transform="translate(210,30)"><rect x="0" y="6" width="30" height="20" rx="3"/><path d="M9 6l3-4h6l3 4"/><circle cx="15" cy="16" r="6"/></g>
    <!-- music notes -->
    <g transform="translate(56,110)"><path d="M4 22V4l16-3v18"/><circle cx="4" cy="22" r="4"/><circle cx="20" cy="19" r="4"/></g>
    <!-- smiley -->
    <g transform="translate(150,104)"><circle cx="14" cy="14" r="14"/><circle cx="9" cy="11" r="1.4" fill="#b3a58e" stroke="none"/><circle cx="19" cy="11" r="1.4" fill="#b3a58e" stroke="none"/><path d="M8 17a7 7 0 0 0 12 0"/></g>
    <!-- coffee cup -->
    <g transform="translate(240,110)"><path d="M2 8h20v9a7 7 0 0 1-7 7H9a7 7 0 0 1-7-7z"/><path d="M22 10h4a4 4 0 0 1 0 8h-4"/><path d="M7 2c-1 2 1 3 0 5M13 2c-1 2 1 3 0 5"/></g>
    <!-- star -->
    <g transform="translate(30,190)"><path d="M15 1l4.3 8.7 9.7 1.4-7 6.8 1.6 9.6L15 22.9 6.4 27.5 8 17.9l-7-6.8 9.7-1.4z"/></g>
    <!-- umbrella -->
    <g transform="translate(118,196)"><path d="M2 14a13 13 0 0 1 26 0z"/><path d="M15 14v11a4 4 0 0 1-8 0"/></g>
    <!-- gift -->
    <g transform="translate(206,196)"><rect x="0" y="9" width="28" height="19" rx="2"/><path d="M0 15h28M14 9v19"/><path d="M14 9C10 9 8 3 11 2s5 5 3 7c-2-2 0-6 3-5s0 6-3 5"/></g>
    <!-- sun -->
    <g transform="translate(150,244)"><circle cx="14" cy="14" r="7"/><path d="M14 0v4M14 24v4M0 14h4M24 14h4M4 4l3 3M24 24l-3-3M24 4l-3 3M4 24l3-3"/></g>
    <!-- leaf -->
    <g transform="translate(250,246)"><path d="M2 26C2 10 14 2 26 2 26 18 14 26 2 26z"/><path d="M6 22 22 6"/></g>
    <!-- balloon -->
    <g transform="translate(76,250)"><ellipse cx="11" cy="10" rx="9" ry="11"/><path d="M11 21v6"/></g>
  </g>
</svg>
